<svg width="269" height="98" viewBox="0 0 269 98" fill="none" xmlns="http://www.w3.org/2000/svg">
<path d="M5.70637 61.5414V58.6414L11.372 52.8H19.9316V61.5414H5.70637ZM5.70637 76V67.3414H19.9316V76H25.5972V47H8.5188L0 55.7414V76H5.70637Z" fill="#F1F1F1"/>
<path d="M44.1336 76V52.8H54.0383V47H28.4411V52.8H38.4273V76H44.1336Z" fill="#F1F1F1"/>
<path d="M62.189 76V58.6L67.8546 52.8H76.4142V76H82.0798V47H65.0014L56.4826 55.7V76H62.189Z" fill="#F1F1F1"/>
<path d="M91.4453 61.5414V58.6414L97.1109 52.8H105.67V61.5414H91.4453ZM91.4453 76V67.3414H105.67V76H111.336V47H94.2577L85.7389 55.7414V76H91.4453Z" fill="#F1F1F1"/>
<path d="M121.109 76V64.4414H135.334V76H141V47H135.334V58.6414H121.109V47H115.403V76H121.109Z" fill="#F1F1F1"/>
<path d="M195.672 76V52.8H214.067V47H190V76H195.672Z" fill="#F1F1F1"/>
<path d="M220.551 61.5414V58.6414L226.183 52.8H234.691V61.5414H220.551ZM220.551 76V67.3414H234.691V76H240.323V47H223.346L214.878 55.7414V76H220.551Z" fill="#F1F1F1"/>
<path d="M266.204 76L269 73.1414V64.4414L266.204 61.5414L269 58.6414V49.9414L266.204 47H246.351L243.555 49.9414V55.7H249.228V52.8H263.368V58.6414H254.86V64.4414H263.368V70.2H249.228V67.3414H243.555V73.1414L246.351 76H266.204Z" fill="#F1F1F1"/>
<path d="M8.54933 86.674C8.54933 87.3626 8.32056 87.9316 7.86303 88.381C7.40549 88.8303 6.78553 89.116 6.00315 89.2381V89.2821C6.92279 89.3797 7.6274 89.6508 8.11696 90.0952C8.6111 90.5397 8.85816 91.1184 8.85816 91.8315C8.85816 92.8181 8.48299 93.5971 7.73263 94.1685C6.98685 94.7399 5.95282 95.0256 4.63054 95.0256C3.15728 95.0256 1.97455 94.8327 1.08236 94.4469V92.5421C1.51244 92.7619 2.01573 92.9353 2.59222 93.0623C3.17329 93.1844 3.71547 93.2454 4.21876 93.2454C5.90706 93.2454 6.75122 92.7204 6.75122 91.6703C6.75122 91.1966 6.47898 90.8327 5.93452 90.5788C5.39462 90.3248 4.59394 90.1978 3.53246 90.1978H2.59222V88.4249H3.43637C4.49786 88.4249 5.27109 88.3175 5.75608 88.1026C6.24106 87.8877 6.48356 87.5311 6.48356 87.033C6.48356 86.6667 6.33028 86.3761 6.02373 86.1612C5.72176 85.9414 5.26651 85.8315 4.65799 85.8315C3.71547 85.8315 2.80498 86.1221 1.92651 86.7033L1 85.1868C1.57192 84.7814 2.17815 84.486 2.8187 84.3004C3.45925 84.1099 4.17072 84.0147 4.9531 84.0147C6.04661 84.0147 6.91822 84.2589 7.56792 84.7473C8.22219 85.2357 8.54933 85.8779 8.54933 86.674Z" fill="#F1F1F1"/>
<path d="M16.8742 94.8791L16.1467 92.3297H12.4887L11.7612 94.8791H9.46897L13.0103 84.1245H15.6114L19.1664 94.8791H16.8742ZM15.6388 90.4249C14.9663 88.1148 14.5865 86.8083 14.4996 86.5055C14.4172 86.2027 14.3577 85.9634 14.3211 85.7875C14.1701 86.4127 13.7378 87.9585 13.024 90.4249H15.6388Z" fill="#F1F1F1"/>
<path d="M28.3766 94.8791H26.2559V86.0586H22.5636V94.8791H20.4361V84.1685H28.3766V94.8791Z" fill="#F1F1F1"/>
<path d="M33.0366 89.2088H33.7366C34.3909 89.2088 34.8805 89.072 35.2053 88.7985C35.5302 88.5201 35.6926 88.1172 35.6926 87.5897C35.6926 87.0574 35.5553 86.6642 35.2808 86.4103C35.0109 86.1563 34.5854 86.0293 34.0043 86.0293H33.0366V89.2088ZM37.8407 87.5092C37.8407 88.6618 37.5021 89.5433 36.825 90.1538C36.1524 90.7643 35.1939 91.0696 33.9494 91.0696H33.0366V94.8791H30.9091V84.1685H34.1141C35.3311 84.1685 36.2554 84.4493 36.8868 85.011C37.5227 85.5678 37.8407 86.4005 37.8407 87.5092Z" fill="#F1F1F1"/>
<path d="M45.8773 94.8791L45.1498 92.3297H41.4919L40.7644 94.8791H38.4721L42.0134 84.1245H44.6145L48.1696 94.8791H45.8773ZM44.642 90.4249C43.9694 88.1148 43.5896 86.8083 43.5027 86.5055C43.4204 86.2027 43.3609 85.9634 43.3243 85.7875C43.1733 86.4127 42.7409 87.9585 42.0272 90.4249H44.642Z" fill="#F1F1F1"/>
<path d="M49.4392 84.1685H52.5619C53.9848 84.1685 55.0166 84.3858 55.6571 84.8205C56.3023 85.2503 56.6248 85.9365 56.6248 86.8791C56.6248 87.5189 56.483 88.044 56.1993 88.4542C55.9202 88.8645 55.5473 89.1111 55.0806 89.1941V89.2674C55.7166 89.4188 56.1741 89.7021 56.4532 90.1172C56.7369 90.5324 56.8788 91.0842 56.8788 91.7729C56.8788 92.7497 56.547 93.5116 55.8836 94.0586C55.2248 94.6056 54.328 94.8791 53.1933 94.8791H49.4392V84.1685ZM51.5668 88.4103H52.8021C53.3786 88.4103 53.795 88.315 54.0512 88.1245C54.312 87.9341 54.4424 87.619 54.4424 87.1795C54.4424 86.7692 54.3005 86.4762 54.0169 86.3004C53.7378 86.1197 53.294 86.0293 52.6854 86.0293H51.5668V88.4103ZM51.5668 90.2125V93.0037H52.9531C53.5387 93.0037 53.9711 92.884 54.2502 92.6447C54.5293 92.4054 54.6689 92.0391 54.6689 91.5458C54.6689 90.6569 54.0741 90.2125 52.8845 90.2125H51.5668Z" fill="#F1F1F1"/>
<path d="M67.0635 94.8791H64.6477L61.0103 89.4505V94.8791H58.8828V84.1685H61.0103V89.3553L64.6065 84.1685H66.8713L63.2133 89.3114L67.0635 94.8791Z" fill="#F1F1F1"/>
<path d="M74.4687 94.8791L73.7412 92.3297H70.0832L69.3557 94.8791H67.0635L70.6048 84.1245H73.2059L76.7609 94.8791H74.4687ZM73.2333 90.4249C72.5608 88.1148 72.181 86.8083 72.0941 86.5055C72.0117 86.2027 71.9522 85.9634 71.9156 85.7875C71.7647 86.4127 71.3323 87.9585 70.6185 90.4249H73.2333Z" fill="#F1F1F1"/>
<path d="M88.0232 84.1685V86.044H83.8093V94.8791H81.6817V84.1685H88.0232Z" fill="#F1F1F1"/>
<path d="M95.7166 94.8791L94.9891 92.3297H91.3311L90.6037 94.8791H88.3114L91.8527 84.1245H94.4538L98.0089 94.8791H95.7166ZM94.4813 90.4249C93.8087 88.1148 93.4289 86.8083 93.342 86.5055C93.2597 86.2027 93.2002 85.9634 93.1636 85.7875C93.0126 86.4127 92.5802 87.9585 91.8665 90.4249H94.4813Z" fill="#F1F1F1"/>
<path d="M106.21 86.674C106.21 87.3626 105.981 87.9316 105.524 88.381C105.066 88.8303 104.446 89.116 103.664 89.2381V89.2821C104.584 89.3797 105.288 89.6508 105.778 90.0952C106.272 90.5397 106.519 91.1184 106.519 91.8315C106.519 92.8181 106.144 93.5971 105.393 94.1685C104.648 94.7399 103.614 95.0256 102.291 95.0256C100.818 95.0256 99.6354 94.8327 98.7432 94.4469V92.5421C99.1733 92.7619 99.6766 92.9353 100.253 93.0623C100.834 93.1844 101.376 93.2454 101.88 93.2454C103.568 93.2454 104.412 92.7204 104.412 91.6703C104.412 91.1966 104.14 90.8327 103.595 90.5788C103.055 90.3248 102.255 90.1978 101.193 90.1978H100.253V88.4249H101.097C102.159 88.4249 102.932 88.3175 103.417 88.1026C103.902 87.8877 104.144 87.5311 104.144 87.033C104.144 86.6667 103.991 86.3761 103.685 86.1612C103.383 85.9414 102.927 85.8315 102.319 85.8315C101.376 85.8315 100.466 86.1221 99.5874 86.7033L98.6609 85.1868C99.2328 84.7814 99.839 84.486 100.48 84.3004C101.12 84.1099 101.832 84.0147 102.614 84.0147C103.707 84.0147 104.579 84.2589 105.229 84.7473C105.883 85.2357 106.21 85.8779 106.21 86.674Z" fill="#F1F1F1"/>
<path d="M114.734 84.1685V86.044H110.52V94.8791H108.393V84.1685H114.734Z" fill="#F1F1F1"/>
<path d="M125.392 89.5092C125.392 91.2821 124.981 92.6447 124.157 93.5971C123.333 94.5495 122.153 95.0256 120.616 95.0256C119.078 95.0256 117.898 94.5495 117.074 93.5971C116.251 92.6447 115.839 91.2772 115.839 89.4945C115.839 87.7118 116.251 86.3516 117.074 85.4139C117.902 84.4713 119.088 84 120.629 84C122.171 84 123.349 84.4737 124.164 85.4212C124.983 86.3687 125.392 87.7314 125.392 89.5092ZM118.069 89.5092C118.069 90.7057 118.282 91.6068 118.708 92.2125C119.133 92.8181 119.769 93.1209 120.616 93.1209C122.313 93.1209 123.162 91.917 123.162 89.5092C123.162 87.0965 122.318 85.8901 120.629 85.8901C119.783 85.8901 119.145 86.1954 118.715 86.8059C118.285 87.4115 118.069 88.3126 118.069 89.5092Z" fill="#F1F1F1"/>
<path d="M135.412 94.8791H133.292V86.0586H130.835L130.725 87.0403C130.441 89.536 130.19 91.2894 129.97 92.3004C129.755 93.3065 129.439 94.0147 129.023 94.4249C128.607 94.8352 128.044 95.0354 127.335 95.0256C126.95 95.0256 126.612 94.9719 126.319 94.8645V93.0037C126.584 93.1013 126.834 93.1502 127.067 93.1502C127.309 93.1502 127.502 93.033 127.643 92.7985C127.785 92.5592 127.918 92.1197 128.041 91.4799C128.17 90.8352 128.337 89.7827 128.542 88.3223C128.753 86.8571 128.931 85.4725 129.078 84.1685H135.412V94.8791Z" fill="#F1F1F1"/>
<path d="M145.014 91.5311C145.014 93.7631 143.632 94.8791 140.868 94.8791H137.945V84.1685H140.072V88.2784H140.91C142.218 88.2784 143.229 88.5617 143.943 89.1282C144.657 89.6947 145.014 90.4957 145.014 91.5311ZM140.072 93.0183H140.786C141.504 93.0183 142.031 92.8962 142.365 92.652C142.699 92.4029 142.866 92.0293 142.866 91.5311C142.866 91.0379 142.696 90.6838 142.358 90.4689C142.019 90.2491 141.438 90.1392 140.615 90.1392H140.072V93.0183Z" fill="#F1F1F1"/>
<path d="M145.727 92.989H146.503C147.166 91.5726 147.69 90.1587 148.075 88.7473C148.459 87.3309 148.745 85.8046 148.933 84.1685H154.78V92.989H156.118V98H154.066V94.8791H147.78V98H145.727V92.989ZM150.621 86.0586C150.474 87.177 150.23 88.3614 149.886 89.6117C149.548 90.862 149.166 91.9878 148.74 92.989H152.659V86.0586H150.621Z" fill="#F1F1F1"/>
<path d="M163.448 94.8791H157.669V84.1685H163.448V86.0293H159.797V88.381H163.194V90.2418H159.797V93.0037H163.448V94.8791Z" fill="#F1F1F1"/>
<path d="M167.675 89.2088H168.375C169.03 89.2088 169.519 89.072 169.844 88.7985C170.169 88.5201 170.331 88.1172 170.331 87.5897C170.331 87.0574 170.194 86.6642 169.92 86.4103C169.65 86.1563 169.224 86.0293 168.643 86.0293H167.675V89.2088ZM172.48 87.5092C172.48 88.6618 172.141 89.5433 171.464 90.1538C170.791 90.7643 169.833 91.0696 168.588 91.0696H167.675V94.8791H165.548V84.1685H168.753C169.97 84.1685 170.894 84.4493 171.526 85.011C172.162 85.5678 172.48 86.4005 172.48 87.5092Z" fill="#F1F1F1"/>
<path d="M183.481 89.5092C183.481 91.2821 183.069 92.6447 182.246 93.5971C181.422 94.5495 180.242 95.0256 178.704 95.0256C177.167 95.0256 175.987 94.5495 175.163 93.5971C174.339 92.6447 173.928 91.2772 173.928 89.4945C173.928 87.7118 174.339 86.3516 175.163 85.4139C175.991 84.4713 177.176 84 178.718 84C180.26 84 181.438 84.4737 182.253 85.4212C183.071 86.3687 183.481 87.7314 183.481 89.5092ZM176.158 89.5092C176.158 90.7057 176.371 91.6068 176.796 92.2125C177.222 92.8181 177.858 93.1209 178.704 93.1209C180.402 93.1209 181.251 91.917 181.251 89.5092C181.251 87.0965 180.406 85.8901 178.718 85.8901C177.872 85.8901 177.233 86.1954 176.803 86.8059C176.373 87.4115 176.158 88.3126 176.158 89.5092Z" fill="#F1F1F1"/>
<path d="M185.56 84.1685H188.683C190.106 84.1685 191.138 84.3858 191.778 84.8205C192.424 85.2503 192.746 85.9365 192.746 86.8791C192.746 87.5189 192.604 88.044 192.321 88.4542C192.041 88.8645 191.669 89.1111 191.202 89.1941V89.2674C191.838 89.4188 192.295 89.7021 192.574 90.1172C192.858 90.5324 193 91.0842 193 91.7729C193 92.7497 192.668 93.5116 192.005 94.0586C191.346 94.6056 190.449 94.8791 189.315 94.8791H185.56V84.1685ZM187.688 88.4103H188.923C189.5 88.4103 189.916 88.315 190.172 88.1245C190.433 87.9341 190.564 87.619 190.564 87.1795C190.564 86.7692 190.422 86.4762 190.138 86.3004C189.859 86.1197 189.415 86.0293 188.807 86.0293H187.688V88.4103ZM187.688 90.2125V93.0037H189.074C189.66 93.0037 190.092 92.884 190.371 92.6447C190.651 92.4054 190.79 92.0391 190.79 91.5458C190.79 90.6569 190.195 90.2125 189.006 90.2125H187.688Z" fill="#F1F1F1"/>
<path d="M169.457 76V44.8H183V37H148V44.8H161.654V76H169.457Z" fill="#2194FF"/>
<path fill-rule="evenodd" clip-rule="evenodd" d="M168.75 6.42341C167.613 7.35991 167.311 9.0497 167.842 11.4928C167.717 10.0654 168.322 8.92521 169.657 8.07231C170.545 7.27188 170.848 5.73951 170.566 3.47519C170.329 4.82792 169.723 5.81287 168.75 6.43009V6.42341ZM161.984 28.4645C160.819 27.2743 160.149 25.712 160.102 24.0756C160.055 22.4393 160.634 20.8436 161.73 19.5931C162.811 18.4369 162.996 17.1714 162.283 15.7964C163.347 16.3647 163.865 17.7704 163.836 20.0133C165.578 16.5377 165.508 13.6326 163.625 11.298C164.357 11.4847 165.075 11.7201 165.774 12.0024C165.547 10.7288 165.08 9.64691 164.373 8.75666C162.969 6.10724 163.055 3.18837 164.629 0C163.957 2.06599 164.297 4.02705 165.65 5.88315C166.967 7.76593 167.278 9.92662 166.583 12.3653C170.788 14.4312 172.049 18.1252 170.364 23.4472C171.711 22.5578 172.206 20.9837 171.848 18.7247C173.66 22.0233 173.806 24.7167 172.285 26.805C173.43 25.4698 174.072 23.7999 174.106 22.0678C174.159 19.7981 173.695 17.9923 172.714 16.6502C171.35 15.0494 170.537 13.7086 170.274 12.6281C169.678 8.66328 170.624 5.82665 173.112 4.11818C170.899 6.6084 171.037 9.93284 173.527 14.0915C173.118 11.7569 173.71 10.3259 175.303 9.79855C173.699 10.4327 173.854 13.5783 175.768 19.2356C176.295 21.5597 175.917 23.9895 174.707 26.0624C173.496 28.1354 171.538 29.7067 169.204 30.4773C166.87 31.2479 164.324 31.164 162.05 30.2416C159.777 29.3192 157.934 27.6227 156.873 25.4749C155.385 22.0687 155.8 17.9642 158.118 13.1617C159.658 10.6403 160.452 7.6761 160.501 4.26894C160.235 2.61918 159.674 1.29491 158.818 0.296154C161.487 2.53557 162.914 4.98623 163.098 7.64809C163.288 10.0627 162.655 12.2061 161.197 14.0782C159.217 16.732 158.252 19.7968 158.303 23.2724C158.502 24.3385 158.933 25.3518 159.567 26.2456C160.202 27.1394 161.025 27.8934 161.984 28.4579V28.4645ZM168.456 29.2649C170.385 27.6587 170.509 25.6381 168.828 23.203C167.453 21.3007 166.951 19.5616 167.325 17.9856C164.879 19.257 164.941 23.1203 165.611 26.202C164.903 25.679 163.626 23.1083 163.674 21.8637C161.73 24.8368 161.883 27.3306 164.134 29.345C165.554 29.7007 167.047 29.673 168.452 29.2649H168.456Z" fill="#2194FF"/>
</svg>
